<?xml version="1.0" encoding="UTF-8"?>
<svg version="1.1" xmlns="http://www.w3.org/2000/svg" width="158" height="158">
<path d="M0 0 C0.79880585 -0.0071553 1.59761169 -0.01431061 2.42062378 -0.02168274 C3.28820313 -0.02437164 4.15578247 -0.02706055 5.0496521 -0.02983093 C5.97051605 -0.03640213 6.89138 -0.04297333 7.84014893 -0.04974365 C10.88703497 -0.06944922 13.93387174 -0.08113456 16.98080444 -0.09111023 C18.54526873 -0.09722352 18.54526873 -0.09722352 20.14133835 -0.10346031 C25.66415966 -0.12431159 31.18695621 -0.13861615 36.70980835 -0.147995 C42.3990959 -0.15904393 48.08799067 -0.19342931 53.77713966 -0.23316669 C58.16451721 -0.25938227 62.55180197 -0.26769134 66.93925095 -0.27127647 C69.03549215 -0.27613138 71.13172952 -0.2877139 73.22789383 -0.30631447 C76.17139535 -0.33080584 79.11389122 -0.32972233 82.0574646 -0.32279968 C82.91289856 -0.33560974 83.76833252 -0.3484198 84.64968872 -0.36161804 C95.24695866 -0.2714093 104.94295389 4.59829207 112.66049194 11.73701477 C118.51658083 18.08609073 123.03477774 26.44872651 123.08891296 35.20542908 C123.09964592 36.40363785 123.09964592 36.40363785 123.1105957 37.62605286 C123.11328461 38.4936322 123.11597351 39.36121155 123.1187439 40.25508118 C123.12531509 41.17594513 123.13188629 42.09680908 123.13865662 43.045578 C123.15836218 46.09246405 123.17004753 49.13930081 123.18002319 52.18623352 C123.18409872 53.22920971 123.18817425 54.2721859 123.19237328 55.34676743 C123.21322456 60.86958874 123.22752911 66.39238528 123.23690796 71.91523743 C123.24795689 77.60452497 123.28234228 83.29341975 123.32207966 88.98256874 C123.34829523 93.36994629 123.3566043 97.75723105 123.36018944 102.14468002 C123.36504434 104.24092123 123.37662686 106.3371586 123.39522743 108.43332291 C123.41971881 111.37682443 123.41863529 114.3193203 123.41171265 117.26289368 C123.43092773 118.54604462 123.43092773 118.54604462 123.45053101 119.8551178 C123.36032227 130.45238774 118.49062089 140.14838297 111.35189819 147.86592102 C105.00282223 153.72200991 96.64018646 158.24020682 87.88348389 158.29434204 C87.08467804 158.30149734 86.28587219 158.30865265 85.46286011 158.31602478 C84.59528076 158.31871368 83.72770142 158.32140259 82.83383179 158.32417297 C81.91296783 158.33074417 80.99210388 158.33731537 80.04333496 158.34408569 C76.99644891 158.36379126 73.94961215 158.3754766 70.90267944 158.38545227 C69.33821516 158.39156556 69.33821516 158.39156556 67.74214554 158.39780235 C62.21932423 158.41865364 56.69652768 158.43295819 51.17367554 158.44233704 C45.48438799 158.45338597 39.79549321 158.48777135 34.10634422 158.52750874 C29.71896668 158.55372431 25.33168191 158.56203338 20.94423294 158.56561852 C18.84799173 158.57047342 16.75175436 158.58205594 14.65559006 158.60065651 C11.71208853 158.62514788 8.76959267 158.62406437 5.82601929 158.61714172 C4.97058533 158.62995178 4.11515137 158.64276184 3.23379517 158.65596008 C-7.36347478 158.56575134 -17.05947001 153.69604997 -24.77700806 146.55732727 C-30.63309695 140.20825131 -35.15129385 131.84561553 -35.20542908 123.08891296 C-35.21258438 122.29010712 -35.21973969 121.49130127 -35.22711182 120.66828918 C-35.22980072 119.80070984 -35.23248962 118.93313049 -35.23526001 118.03926086 C-35.24183121 117.11839691 -35.2484024 116.19753296 -35.25517273 115.24876404 C-35.2748783 112.20187799 -35.28656364 109.15504123 -35.29653931 106.10810852 C-35.3026526 104.54364424 -35.3026526 104.54364424 -35.30888939 102.94757462 C-35.32974067 97.42475331 -35.34404523 91.90195676 -35.35342407 86.37910461 C-35.364473 80.68981707 -35.39885839 75.00092229 -35.43859577 69.3117733 C-35.46481134 64.92439575 -35.47312042 60.53711099 -35.47670555 56.14966202 C-35.48156046 54.05342081 -35.49314298 51.95718344 -35.51174355 49.86101913 C-35.53623492 46.91751761 -35.53515141 43.97502174 -35.52822876 41.03144836 C-35.54103882 40.1760144 -35.55384888 39.32058044 -35.56704712 38.43922424 C-35.47683838 27.8419543 -30.607137 18.14595907 -23.46841431 10.42842102 C-17.11933834 4.57233213 -8.75670257 0.05413523 0 0 Z " fill="#010100" transform="translate(35.058258056640625,-0.1471710205078125)"/>
<path d="M0 0 C1.17181824 -0.0159874 2.34363647 -0.03197479 3.55096436 -0.04844666 C4.8093512 -0.05380936 6.06773804 -0.05917206 7.36425781 -0.06469727 C9.31927216 -0.07823997 9.31927216 -0.07823997 11.31378174 -0.09205627 C14.07086659 -0.10851487 16.8278305 -0.11624023 19.58496094 -0.11914062 C23.0965268 -0.12451185 26.60693542 -0.16215028 30.11817551 -0.20788479 C33.49186166 -0.24501456 36.86537462 -0.24617981 40.23925781 -0.25219727 C41.48954773 -0.27172958 42.73983765 -0.2912619 44.02801514 -0.31138611 C52.53796425 -0.26771844 58.71249061 1.08978016 64.94110107 7.12062073 C70.2502492 12.84394706 71.37082635 17.87871069 71.19238281 25.61889648 C71.15113281 28.15577148 71.10988281 30.69264648 71.06738281 33.30639648 C78.98738281 33.30639648 86.90738281 33.30639648 95.06738281 33.30639648 C95.39738281 34.95639648 95.72738281 36.60639648 96.06738281 38.30639648 C93.25496167 41.11881763 90.57758392 40.60351421 86.81347656 40.61499023 C85.30240618 40.64022123 83.79133856 40.66561783 82.28027344 40.69116211 C79.91806349 40.71947088 77.55590484 40.7434815 75.19360352 40.76269531 C57.21869348 40.937209 41.71784128 43.6080737 25.20019531 51.04467773 C23.84385623 51.65371309 22.48708015 52.26177612 21.12988281 52.86889648 C20.46029541 53.16844238 19.79070801 53.46798828 19.10083008 53.77661133 C9.42628048 58.01280464 -1.15363272 61.53032049 -11.80761719 61.36889648 C-12.58878906 61.35987305 -13.36996094 61.35084961 -14.17480469 61.34155273 C-14.75488281 61.32995117 -15.33496094 61.31834961 -15.93261719 61.30639648 C-16.01584034 73.36427262 -16.01584034 73.36427262 -9.93261719 83.30639648 C-6.22444141 85.94741811 -3.68432491 86.68808781 0.84814453 86.72631836 C1.98637665 86.74223022 3.12460876 86.75814209 4.29733276 86.77453613 C5.51824615 86.77473755 6.73915955 86.77493896 7.99707031 86.77514648 C9.26076447 86.78276001 10.52445862 86.79037354 11.82644653 86.79821777 C14.4980619 86.80901776 17.16879183 86.81324313 19.84033203 86.80737305 C23.24903626 86.80148372 26.65631276 86.83204414 30.06474113 86.87248993 C33.33382306 86.90469461 36.60285435 86.90025054 39.87207031 86.90014648 C41.08893524 86.91654175 42.30580017 86.93293701 43.55953979 86.9498291 C50.75826922 86.8913013 54.76554898 86.31865187 60.06738281 81.30639648 C62.98896775 76.90895937 63.50858718 73.15286388 63.75488281 67.93139648 C63.820625 66.68616211 63.88636719 65.44092773 63.95410156 64.15795898 C63.99148437 63.21694336 64.02886719 62.27592773 64.06738281 61.30639648 C51.93377696 61.06612706 43.44264031 63.20167088 32.93725586 69.24414062 C30.93185027 70.38339114 28.91079554 71.47710264 26.86425781 72.54077148 C26.23745117 72.86916016 25.61064453 73.19754883 24.96484375 73.53588867 C20.54447676 75.33088072 16.47650487 74.86417396 12.06738281 73.11889648 C10.06738281 71.30639648 10.06738281 71.30639648 9.75488281 68.61889648 C9.85800781 67.85577148 9.96113281 67.09264648 10.06738281 66.30639648 C11.72352939 65.92420881 13.39195306 65.59244547 15.06738281 65.30639648 C15.39738281 65.63639648 15.72738281 65.96639648 16.06738281 66.30639648 C22.1372213 67.19790401 26.06011031 64.43080229 31.06738281 61.43139648 C32.62708234 60.51256359 34.18953053 59.59837824 35.75488281 58.68920898 C36.439375 58.2807373 37.12386719 57.87226562 37.82910156 57.45141602 C43.12583727 54.74180754 47.91215797 54.00594229 53.80175781 54.04077148 C54.52099426 54.03885803 55.24023071 54.03694458 55.98126221 54.03497314 C57.49060418 54.03361977 58.99995813 54.03725663 60.50927734 54.0456543 C62.82448131 54.05642952 65.13892047 54.04569861 67.45410156 54.03295898 C68.92415536 54.0342795 70.39420868 54.03683965 71.86425781 54.04077148 C72.55694763 54.03672302 73.24963745 54.03267456 73.96331787 54.02850342 C78.83741461 54.07642828 78.83741461 54.07642828 81.06738281 56.30639648 C80.69238281 58.93139648 80.69238281 58.93139648 80.06738281 61.30639648 C77.09738281 61.30639648 74.12738281 61.30639648 71.06738281 61.30639648 C71.12539062 62.35698242 71.18339844 63.40756836 71.24316406 64.48999023 C71.56724396 72.83554454 71.7350867 79.59738217 66.06738281 86.30639648 C60.90394524 91.77437997 55.50995108 94.43700271 48.02124023 94.72631836 C45.57194909 94.7595789 43.1223685 94.7747528 40.67285156 94.77514648 C39.37092361 94.78276001 38.06899567 94.79037354 36.72761536 94.79821777 C33.97644421 94.81162915 31.22555982 94.81324736 28.47436523 94.80737305 C24.97061603 94.80148934 21.46825849 94.83202564 17.96477795 94.87248993 C14.59659495 94.90475995 11.22868821 94.90025048 7.86035156 94.90014648 C6.6131987 94.91654175 5.36604584 94.93293701 4.08110046 94.9498291 C-4.16554592 94.88486249 -10.32610055 93.61281388 -16.47590637 87.86364746 C-21.7723593 81.91875455 -23.38931383 76.62613228 -23.12011719 68.93139648 C-23.05824219 66.41514648 -22.99636719 63.89889648 -22.93261719 61.30639648 C-30.85261719 61.30639648 -38.77261719 61.30639648 -46.93261719 61.30639648 C-47.26261719 59.65639648 -47.59261719 58.00639648 -47.93261719 56.30639648 C-45.36255015 53.73632945 -43.64775487 54.06323016 -40.14460754 54.02993774 C-39.34890854 54.03093475 -38.55320953 54.03193176 -37.73339844 54.03295898 C-36.03091842 54.01262684 -34.32844454 53.99177542 -32.62597656 53.97045898 C-29.95624658 53.94810798 -27.28676176 53.93148933 -24.61694336 53.92553711 C-10.10015407 53.87101908 2.25756055 52.02805251 15.75488281 46.36889648 C16.67901978 45.98822021 16.67901978 45.98822021 17.62182617 45.59985352 C20.4895608 44.41425167 23.33886805 43.18834463 26.18457031 41.95092773 C36.76836918 37.38894546 48.26477075 33.06696297 59.94238281 33.24389648 C61.11414063 33.25743164 61.11414063 33.25743164 62.30957031 33.27124023 C62.88964844 33.2828418 63.46972656 33.29444336 64.06738281 33.30639648 C64.17804275 21.22411537 64.17804275 21.22411537 58.06738281 11.30639648 C52.26683317 7.30414828 46.07509685 7.82150249 39.29394531 7.80249023 C38.05623383 7.79250504 36.81852234 7.78251984 35.54330444 7.77223206 C32.92929419 7.75706748 30.31522607 7.75000575 27.70117188 7.75048828 C23.71318022 7.75085294 19.72684143 7.68942835 15.73925781 7.63256836 C13.19499546 7.62376506 10.65072133 7.61781167 8.10644531 7.61499023 C6.9197525 7.59343369 5.73305969 7.57187714 4.51040649 7.54966736 C-2.12722177 7.60430872 -6.29493783 8.31075448 -11.44570923 12.62757874 C-15.06040214 16.70880688 -15.31831028 20.78167337 -15.55761719 26.05639648 C-15.615625 27.1024707 -15.615625 27.1024707 -15.67480469 28.16967773 C-15.76860342 29.88150467 -15.85167893 31.5939133 -15.93261719 33.30639648 C-2.16674521 33.57898801 7.27176289 30.32761659 18.91943359 23.16796875 C23.9229166 20.15473623 27.36506549 19.43239645 33.06738281 20.30639648 C36.12988281 21.49389648 36.12988281 21.49389648 38.06738281 23.30639648 C38.37988281 25.99389648 38.37988281 25.99389648 38.06738281 28.30639648 C36.41123624 28.68858416 34.74281257 29.0203475 33.06738281 29.30639648 C32.73738281 28.97639648 32.40738281 28.64639648 32.06738281 28.30639648 C26.30420327 27.56191281 22.91702167 29.71661833 18.19238281 32.61889648 C16.84426571 33.43322156 15.49269625 34.24185926 14.13769531 35.04467773 C13.54746582 35.40601807 12.95723633 35.7673584 12.34912109 36.13964844 C6.15877915 39.30502872 0.8363716 40.7572792 -6.11621094 40.63452148 C-7.22767235 40.63171173 -7.22767235 40.63171173 -8.36158752 40.62884521 C-9.91029434 40.62217888 -11.45898591 40.60837414 -13.00756836 40.58764648 C-15.38834104 40.55615543 -17.76845257 40.54663532 -20.14941406 40.54077148 C-21.65918785 40.5316134 -23.16895487 40.52124147 -24.67871094 40.50952148 C-25.7488871 40.50314667 -25.7488871 40.50314667 -26.84068298 40.49664307 C-31.81536055 40.42365313 -31.81536055 40.42365313 -32.93261719 39.30639648 C-33.05761719 36.80639648 -33.05761719 36.80639648 -32.93261719 34.30639648 C-31.93261719 33.30639648 -31.93261719 33.30639648 -29.86621094 33.20874023 C-28.63064453 33.22614258 -28.63064453 33.22614258 -27.37011719 33.24389648 C-26.54382813 33.25291992 -25.71753906 33.26194336 -24.86621094 33.27124023 C-24.228125 33.2828418 -23.59003906 33.29444336 -22.93261719 33.30639648 C-22.990625 32.25581055 -23.04863281 31.20522461 -23.10839844 30.12280273 C-23.43331969 21.7821635 -23.61989928 14.99144737 -17.93261719 8.30639648 C-12.64523477 2.75404274 -7.79831571 0.08074048 0 0 Z " fill="#F6B471" transform="translate(54.9326171875,31.693603515625)"/>
<path d="M0 0 C0.71923645 -0.00191345 1.4384729 -0.0038269 2.17950439 -0.00579834 C3.68884637 -0.00715172 5.19820031 -0.00351485 6.70751953 0.00488281 C9.0227235 0.01565804 11.33716266 0.00492712 13.65234375 -0.0078125 C15.12239755 -0.00649198 16.59245087 -0.00393183 18.0625 0 C18.75518982 -0.00404846 19.44787964 -0.00809692 20.16156006 -0.01226807 C25.0356568 0.0356568 25.0356568 0.0356568 27.265625 2.265625 C26.890625 4.890625 26.890625 4.890625 26.265625 7.265625 C23.295625 7.265625 20.325625 7.265625 17.265625 7.265625 C17.32363281 8.31621094 17.38164063 9.36679688 17.44140625 10.44921875 C17.76548614 18.79477306 17.93332889 25.55661069 12.265625 32.265625 C7.10218743 37.73360849 1.70819327 40.39623123 -5.78051758 40.68554688 C-8.22980872 40.71880741 -10.67938932 40.73398132 -13.12890625 40.734375 C-14.4308342 40.74198853 -15.73276215 40.74960205 -17.07414246 40.75744629 C-19.82531361 40.77085766 -22.57619799 40.77247588 -25.32739258 40.76660156 C-28.83114179 40.76071785 -32.33349933 40.79125415 -35.83697987 40.83171844 C-39.20516287 40.86398846 -42.5730696 40.85947899 -45.94140625 40.859375 C-47.18855911 40.87577026 -48.43571198 40.89216553 -49.72065735 40.90905762 C-57.96730373 40.84409101 -64.12785836 39.57204239 -70.27766418 33.82287598 C-75.5746362 27.87740043 -77.19346073 22.59251788 -76.921875 14.890625 C-76.90833984 14.15457031 -76.89480469 13.41851562 -76.88085938 12.66015625 C-76.84582369 10.86165757 -76.79202788 9.06354078 -76.734375 7.265625 C-74.424375 7.265625 -72.114375 7.265625 -69.734375 7.265625 C-69.72019531 8.26722656 -69.70601562 9.26882812 -69.69140625 10.30078125 C-69.40775932 20.76470615 -69.40775932 20.76470615 -63.734375 29.265625 C-60.02619922 31.90664663 -57.48608272 32.64731633 -52.95361328 32.68554688 C-51.81538116 32.70145874 -50.67714905 32.71737061 -49.50442505 32.73376465 C-47.67305496 32.73406677 -47.67305496 32.73406677 -45.8046875 32.734375 C-44.54099335 32.74198853 -43.27729919 32.74960205 -41.97531128 32.75744629 C-39.30369591 32.76824627 -36.63296598 32.77247165 -33.96142578 32.76660156 C-30.55272156 32.76071223 -27.14544505 32.79127266 -23.73701668 32.83171844 C-20.46793475 32.86392313 -17.19890346 32.85947906 -13.9296875 32.859375 C-12.71282257 32.87577026 -11.49595764 32.89216553 -10.24221802 32.90905762 C-3.04348859 32.85052982 0.96379117 32.27788039 6.265625 27.265625 C9.18720993 22.86818788 9.70682937 19.1120924 9.953125 13.890625 C10.01886719 12.64539063 10.08460937 11.40015625 10.15234375 10.1171875 C10.18972656 9.17617187 10.22710937 8.23515625 10.265625 7.265625 C-1.86798085 7.02535558 -10.35911751 9.1608994 -20.86450195 15.20336914 C-22.86990754 16.34261966 -24.89096228 17.43633115 -26.9375 18.5 C-27.56430664 18.82838867 -28.19111328 19.15677734 -28.83691406 19.49511719 C-33.25728105 21.29010924 -37.32525294 20.82340248 -41.734375 19.078125 C-43.734375 17.265625 -43.734375 17.265625 -44.046875 14.578125 C-43.94375 13.815 -43.840625 13.051875 -43.734375 12.265625 C-42.07822843 11.88343733 -40.40980476 11.55167398 -38.734375 11.265625 C-38.239375 11.760625 -38.239375 11.760625 -37.734375 12.265625 C-31.66453651 13.15713253 -27.7416475 10.39003081 -22.734375 7.390625 C-21.17467547 6.47179211 -19.61222728 5.55760676 -18.046875 4.6484375 C-17.36238281 4.23996582 -16.67789063 3.83149414 -15.97265625 3.41064453 C-10.67592054 0.70103606 -5.88959984 -0.0348292 0 0 Z " fill="#F7B571" transform="translate(108.734375,85.734375)"/>
<path d="M0 0 C0.87935211 0.00141495 1.75870422 0.0028299 2.66470337 0.00428772 C5.45619192 0.00985748 8.24759844 0.02240435 11.0390625 0.03515625 C12.93880092 0.04017516 14.8385406 0.04473738 16.73828125 0.04882812 C21.38023964 0.059817 26.02213719 0.07706068 30.6640625 0.09765625 C31.2890625 2.47265625 31.2890625 2.47265625 31.6640625 5.09765625 C28.85164135 7.9100774 26.17426361 7.39477398 22.41015625 7.40625 C20.89908587 7.431481 19.38801824 7.4568776 17.87695312 7.48242188 C15.51474317 7.51073065 13.15258453 7.53474126 10.7902832 7.55395508 C-7.18462683 7.72846877 -22.68547904 10.39933346 -39.203125 17.8359375 C-40.55946408 18.44497286 -41.91624016 19.05303588 -43.2734375 19.66015625 C-43.9430249 19.95970215 -44.6126123 20.25924805 -45.30249023 20.56787109 C-56.72852571 25.57098722 -68.20210941 28.27156994 -80.671875 28.1953125 C-81.55122711 28.19389755 -82.43057922 28.1924826 -83.33657837 28.19102478 C-86.12806692 28.18545502 -88.91947344 28.17290815 -91.7109375 28.16015625 C-93.61067592 28.15513734 -95.5104156 28.15057512 -97.41015625 28.14648438 C-102.05211464 28.1354955 -106.69401219 28.11825182 -111.3359375 28.09765625 C-111.9609375 25.72265625 -111.9609375 25.72265625 -112.3359375 23.09765625 C-109.76587046 20.52758921 -108.05107518 20.85448992 -104.54792786 20.82119751 C-103.75222885 20.82219452 -102.95652985 20.82319153 -102.13671875 20.82421875 C-100.43423873 20.80388661 -98.73176485 20.78303519 -97.02929688 20.76171875 C-94.35956689 20.73936775 -91.69008207 20.72274909 -89.02026367 20.71679688 C-74.50347439 20.66227884 -62.14575976 18.81931228 -48.6484375 13.16015625 C-47.72430054 12.77947998 -47.72430054 12.77947998 -46.78149414 12.39111328 C-43.91375951 11.20551144 -41.06445226 9.9796044 -38.21875 8.7421875 C-25.76303015 3.37334274 -13.5796238 -0.08304465 0 0 Z " fill="#F4F4F4" transform="translate(119.3359375,64.90234375)"/>
</svg>
