<svg width="146" height="96" viewBox="0 0 146 96" fill="none" xmlns="http://www.w3.org/2000/svg">
<path fill-rule="evenodd" clip-rule="evenodd" d="M25.8768 24.3768C25.8768 11.3981 36.3981 0.87677 49.3768 0.87677H96.6234C109.602 0.87677 120.123 11.3981 120.123 24.3768V39.5602H113.123V24.3768C113.123 15.2641 105.736 7.87677 96.6234 7.87677H49.3768C40.2641 7.87677 32.8768 15.2641 32.8768 24.3768V33.7722H44.9127C48.7297 33.7722 52.4942 32.8835 55.9082 31.1765L57.5888 30.3362C59.4777 29.3917 61.4469 28.1508 63.6066 26.7899L63.7643 26.6905C65.9127 25.3369 68.2586 23.8646 70.5917 22.7438C72.9079 21.6311 75.5289 20.7032 78.2457 20.6989C81.1256 20.6943 83.8638 21.7303 86.2025 24.069C87.5694 25.4359 87.5694 27.652 86.2025 29.0188C84.8357 30.3856 82.6196 30.3856 81.2528 29.0188C80.2374 28.0034 79.2874 27.6973 78.2568 27.6989C77.0629 27.7008 75.5508 28.1273 73.6228 29.0535C71.7117 29.9716 69.7024 31.2227 67.4959 32.613L67.2122 32.7918C65.1565 34.0876 62.9253 35.4942 60.7193 36.5972L59.0387 37.4375C54.6527 39.6304 49.8164 40.7722 44.9127 40.7722L19.0164 40.7722C17.0834 40.7722 15.5164 39.2052 15.5164 37.2722C15.5164 35.3392 17.0834 33.7722 19.0164 33.7722H25.8768V24.3768ZM113.123 71.6233V62.2283H101.087C97.27 62.2283 93.5054 63.117 90.0914 64.824L88.4109 65.6643C86.5219 66.6087 84.5527 67.8497 82.393 69.2106L82.2354 69.3099C80.0869 70.6636 77.741 72.1359 75.4079 73.2567C73.0916 74.3694 70.4707 75.2973 67.7539 75.3016C64.8739 75.3062 62.1357 74.2702 59.797 71.9314C58.4301 70.5646 58.4301 68.3485 59.797 66.9817C61.1638 65.6149 63.3799 65.6149 64.7467 66.9817C65.7622 67.9971 66.7121 68.3032 67.7428 68.3016C68.9366 68.2997 70.4488 67.8732 72.3768 66.947C74.2879 66.0289 76.2972 64.7778 78.5037 63.3875L78.7874 63.2087C80.8431 61.9128 83.0744 60.5063 85.2804 59.4033L86.9609 58.563C91.3469 56.37 96.1832 55.2283 101.087 55.2283H126.624C128.557 55.2283 130.124 56.7953 130.124 58.7283C130.124 60.6613 128.557 62.2283 126.624 62.2283H120.123V71.6233C120.123 84.6019 109.602 95.1233 96.6233 95.1233H49.3768C36.3981 95.1233 25.8768 84.602 25.8768 71.6233V57.2663H32.8768V71.6233C32.8768 80.736 40.2641 88.1233 49.3768 88.1233H96.6233C105.736 88.1233 113.123 80.736 113.123 71.6233Z" fill="#FFBB75"/>
<path fill-rule="evenodd" clip-rule="evenodd" d="M118.063 40.7723C103.082 40.7723 88.3067 44.2603 74.9072 50.96L74.2234 51.302C59.8518 58.4877 44.0046 62.2287 27.9368 62.2287H4.33936C2.40636 62.2287 0.839355 60.6617 0.839355 58.7287C0.839355 56.7957 2.40636 55.2287 4.33936 55.2287H27.9368C42.9179 55.2287 57.6933 51.7407 71.0929 45.041L71.7767 44.6991C86.1482 37.5133 101.995 33.7723 118.063 33.7723H141.661C143.594 33.7723 145.161 35.3393 145.161 37.2723C145.161 39.2053 143.594 40.7723 141.661 40.7723H118.063Z" fill="white"/>
</svg>